<?xml version="1.0" encoding="utf-8"?>
<!-- Generator: Adobe Illustrator 18.0.0, SVG Export Plug-In . SVG Version: 6.00 Build 0)  -->
<!DOCTYPE svg PUBLIC "-//W3C//DTD SVG 1.1//EN" "http://www.w3.org/Graphics/SVG/1.1/DTD/svg11.dtd">
<svg version="1.1" id="Layer_1" xmlns="http://www.w3.org/2000/svg" xmlns:xlink="http://www.w3.org/1999/xlink" x="0px" y="0px"
	 viewBox="0 0 300 428" enable-background="new 0 0 300 428" xml:space="preserve">
<path fill="#F8F39D" d="M61.2,14.5V103H57V60.8H30.2V103H26V14.5h4.2v42.3H57V14.5H61.2z"/>
<path fill="#F8F39D" d="M91,103c-2.1,0-4.3-0.3-6.5-0.9s-4.3-1.8-6.1-3.5c-1.8-1.8-3.3-4.1-4.5-7.2c-1.1-3-1.7-7-1.7-11.9V37.9
	c0-7.5,1.5-13.3,4.6-17.3c3.2-4,8-6,14.2-6c6.3,0,11,2,14.2,6c3.2,3.9,4.7,9.7,4.7,17.3v41.6c0,4.9-0.6,8.9-1.7,11.9
	c-1.1,3-2.6,5.4-4.5,7.2c-1.8,1.8-3.9,2.9-6.1,3.5C95.4,102.7,93.2,103,91,103z M91,18.5c-5,0-8.6,1.5-10.9,4.6
	c-2.5,3.2-3.8,8.1-3.8,14.7v41.6c0,6.7,1.3,11.6,3.8,14.8c2.4,3.1,6,4.6,10.9,4.6c4.8,0,8.5-1.5,11-4.6s3.7-8,3.7-14.8V37.9
	c0-6.7-1.2-11.6-3.7-14.7C99.6,20.1,95.9,18.5,91,18.5z"/>
<path fill="#F8F39D" d="M196.1,14.5L176.8,103h-3.4l-16.9-76.8l-17,76.8h-3.3l-19.6-88.5h4.2l17.1,76.8l16.9-76.8h3.3L175,91.3
	l16.7-76.8H196.1z"/>
<path fill="#F8F39D" d="M101.3,195h-4.2l7-30.7v-0.4l13.4-57.4h3.3L141,195h-4.2l-6-27.1h-23.4L101.3,195z M119,117.6l-10.6,46.2
	h21.4L119,117.6z"/>
<path fill="#F8F39D" d="M179.4,154.7c3.9,3.8,5.9,9,5.9,15.6v24.6h-4.2v-24.6c0-5.3-1.4-9.5-4.3-12.4c-2.9-2.9-7-4.4-12.2-4.4h-2
	h-9.9v41.4h-4.1v-88.6h15.9c7.1,0,12.3,1.9,15.6,5.7c3.3,3.8,4.9,9.7,4.9,17.8c0,7.9-1.6,13.7-4.9,17.6c-1.4,1.7-3.2,3-5.3,4.1
	C176.6,152.3,178.1,153.4,179.4,154.7z M164.6,149.3c5.9,0,10-1.5,12.5-4.5c2.6-3.2,3.9-8.1,3.9-15c0-6.9-1.3-11.9-3.8-14.8
	c-2.5-3-6.7-4.5-12.6-4.5h-11.8v38.8h9.9H164.6z"/>
<path fill="#F8F39D" d="M198.3,110.5v38.1H226v4.1h-27.7v38.2H226v4.1h-31.8v-88.5H226v4.1L198.3,110.5L198.3,110.5z"/>
<path fill="#F8F39D" d="M112.1,208.1l-19.3,88.5h-3.4l-16.9-76.8l-16.9,76.8h-3.4l-19.6-88.5h4.2L53.9,285l16.9-76.8h3.3L91,285
	l16.7-76.8H112.1z"/>
<path fill="#F8F39D" d="M123.5,212.2v38.1h27.7v4.1h-27.7v38.2h27.7v4.1h-31.8v-88.5h31.8v4.1h-27.7V212.2z"/>
<path fill="#F8F39D" d="M107.1,396.6H91.9v-88.5h15.1c7,0,12.2,2.1,15.6,6.3c3.2,3.9,4.9,9.7,4.9,17.6v40.7c0,7.9-1.6,13.7-4.9,17.6
	C119.3,394.5,114.1,396.6,107.1,396.6z M95.9,392.5h11c5.7,0,9.8-1.6,12.4-4.8s3.9-8.2,3.9-15V332c0-6.8-1.3-11.8-3.9-15
	c-2.6-3.2-6.7-4.8-12.4-4.8h-11V392.5z"/>
<path fill="#F8F39D" d="M156.2,396.6c-2.1,0-4.3-0.3-6.5-0.9c-2.2-0.6-4.3-1.8-6.1-3.5c-1.8-1.8-3.3-4.1-4.5-7.2
	c-1.1-3-1.7-7-1.7-11.9v-41.7c0-7.5,1.5-13.3,4.6-17.3c3.2-4,8-6,14.2-6c6.3,0,11,2,14.2,6c3.2,3.9,4.7,9.7,4.7,17.3V373
	c0,4.9-0.6,8.9-1.7,11.9s-2.6,5.4-4.5,7.2c-1.8,1.8-3.9,2.9-6.1,3.5C160.6,396.3,158.3,396.6,156.2,396.6z M156.2,312.1
	c-5,0-8.6,1.5-10.9,4.6c-2.5,3.2-3.8,8.1-3.8,14.7V373c0,6.7,1.3,11.6,3.8,14.8c2.4,3.1,6,4.6,10.9,4.6c4.8,0,8.5-1.5,11-4.6
	s3.7-8,3.7-14.8v-41.6c0-6.7-1.2-11.6-3.7-14.7C164.8,313.7,161.1,312.1,156.2,312.1z"/>
<path fill="#F8F39D" d="M184.8,396.6v-88.5h4.1v88.5H184.8z"/>
<path fill="#F8F39D" d="M202.6,396.6h-4.2v-88.5h3.5l30.5,75.8v-75.8h4.2v88.5h-3.4l-30.6-75.8V396.6z"/>
<path fill="#F8F39D" d="M264.7,396.6c-6.3,0-11.1-2-14.3-6c-3.1-4-4.6-9.8-4.6-17.3v-41.9c0-7.6,1.5-13.4,4.6-17.2c3.2-4,8-6,14.3-6
	s11,2,14.2,6c3.2,3.9,4.7,9.6,4.7,17.2v2.1h-4.2v-2.1c0-4.3-0.5-7.7-1.4-10.2c-1-2.5-2.2-4.5-3.6-5.8c-1.4-1.3-3-2.2-4.7-2.6
	c-1.7-0.4-3.3-0.6-4.9-0.6c-1.6,0-3.2,0.2-5,0.6c-1.8,0.4-3.3,1.2-4.8,2.6c-1.4,1.3-2.7,3.2-3.6,5.8c-1,2.5-1.4,6-1.4,10.2v41.9
	c0,6.6,1.3,11.5,3.8,14.7c2.4,3.1,6,4.6,11,4.6c4.9,0,8.5-1.5,10.9-4.6c2.5-3.2,3.8-8.1,3.8-14.7v-11.6h-19.2v-4.3h23.4v15.8
	c0,7.6-1.6,13.4-4.7,17.3C275.7,394.6,271,396.6,264.7,396.6z"/>
<path fill="#F8F39D" stroke="#4164AF" stroke-width="0.75" stroke-miterlimit="10" d="M54.2,9.5V98H50V55.8H23.2V98H19V9.5h4.2v42.3
	H50V9.5H54.2z"/>
<path fill="#F8F39D" stroke="#4164AF" stroke-width="0.75" stroke-miterlimit="10" d="M84,98c-2.1,0-4.3-0.3-6.5-0.9
	s-4.3-1.8-6.1-3.5c-1.8-1.8-3.3-4.1-4.5-7.2c-1.1-3-1.7-7-1.7-11.9V32.9c0-7.5,1.5-13.3,4.6-17.3c3.2-4,8-6,14.2-6
	c6.3,0,11,2,14.2,6c3.2,3.9,4.7,9.7,4.7,17.3v41.6c0,4.9-0.6,8.9-1.7,11.9c-1.1,3-2.6,5.4-4.5,7.2c-1.8,1.8-3.9,2.9-6.1,3.5
	C88.4,97.7,86.2,98,84,98z M84,13.5c-5,0-8.6,1.5-10.9,4.6c-2.5,3.2-3.8,8.1-3.8,14.7v41.6c0,6.7,1.3,11.6,3.8,14.8
	c2.4,3.1,6,4.6,10.9,4.6c4.8,0,8.5-1.5,11-4.6s3.7-8,3.7-14.8V32.9c0-6.7-1.2-11.6-3.7-14.7C92.6,15.1,88.9,13.5,84,13.5z"/>
<path fill="#F8F39D" stroke="#4164AF" stroke-width="0.75" stroke-miterlimit="10" d="M189.1,9.5L169.8,98h-3.4l-16.9-76.8l-17,76.8
	h-3.3L109.6,9.5h4.2l17.1,76.8l16.9-76.8h3.3L168,86.3l16.7-76.8H189.1z"/>
<path fill="#F8F39D" stroke="#4164AF" stroke-width="0.75" stroke-miterlimit="10" d="M94.3,190h-4.2l7-30.7v-0.4l13.4-57.4h3.3
	L134,190h-4.2l-6-27.1h-23.4L94.3,190z M112,112.6l-10.6,46.2h21.4L112,112.6z"/>
<path fill="#F8F39D" stroke="#4164AF" stroke-width="0.75" stroke-miterlimit="10" d="M172.4,149.7c3.9,3.8,5.9,9,5.9,15.6v24.6
	h-4.2v-24.6c0-5.3-1.4-9.5-4.3-12.4c-2.9-2.9-7-4.4-12.2-4.4h-2h-9.9v41.4h-4.1v-88.6h15.9c7.1,0,12.3,1.9,15.6,5.7
	c3.3,3.8,4.9,9.7,4.9,17.8c0,7.9-1.6,13.7-4.9,17.6c-1.4,1.7-3.2,3-5.3,4.1C169.6,147.3,171.1,148.4,172.4,149.7z M157.6,144.3
	c5.9,0,10-1.5,12.5-4.5c2.6-3.2,3.9-8.1,3.9-15c0-6.9-1.3-11.9-3.8-14.8c-2.5-3-6.7-4.5-12.6-4.5h-11.8v38.8h9.9H157.6z"/>
<path fill="#F8F39D" stroke="#4164AF" stroke-width="0.75" stroke-miterlimit="10" d="M191.3,105.5v38.1H219v4.1h-27.7v38.2H219v4.1
	h-31.8v-88.5H219v4.1L191.3,105.5L191.3,105.5z"/>
<path fill="#F8F39D" stroke="#4164AF" stroke-width="0.75" stroke-miterlimit="10" d="M105.1,203.1l-19.3,88.5h-3.4l-16.9-76.8
	l-16.9,76.8h-3.4l-19.6-88.5h4.2L46.9,280l16.9-76.8h3.3L84,280l16.7-76.8H105.1z"/>
<path fill="#F8F39D" stroke="#4164AF" stroke-width="0.75" stroke-miterlimit="10" d="M116.5,207.2v38.1h27.7v4.1h-27.7v38.2h27.7
	v4.1h-31.8v-88.5h31.8v4.1h-27.7V207.2z"/>
<path fill="#F8F39D" stroke="#4164AF" stroke-width="0.75" stroke-miterlimit="10" d="M100.1,391.6H84.9v-88.5h15.1
	c7,0,12.2,2.1,15.6,6.3c3.2,3.9,4.9,9.7,4.9,17.6v40.7c0,7.9-1.6,13.7-4.9,17.6C112.3,389.5,107.1,391.6,100.1,391.6z M88.9,387.5
	h11c5.7,0,9.8-1.6,12.4-4.8s3.9-8.2,3.9-15V327c0-6.8-1.3-11.8-3.9-15c-2.6-3.2-6.7-4.8-12.4-4.8h-11V387.5z"/>
<path fill="#F8F39D" stroke="#4164AF" stroke-width="0.75" stroke-miterlimit="10" d="M149.2,391.6c-2.1,0-4.3-0.3-6.5-0.9
	c-2.2-0.6-4.3-1.8-6.1-3.5c-1.8-1.8-3.3-4.1-4.5-7.2c-1.1-3-1.7-7-1.7-11.9v-41.7c0-7.5,1.5-13.3,4.6-17.3c3.2-4,8-6,14.2-6
	c6.3,0,11,2,14.2,6c3.2,3.9,4.7,9.7,4.7,17.3V368c0,4.9-0.6,8.9-1.7,11.9s-2.6,5.4-4.5,7.2c-1.8,1.8-3.9,2.9-6.1,3.5
	C153.6,391.3,151.3,391.6,149.2,391.6z M149.2,307.1c-5,0-8.6,1.5-10.9,4.6c-2.5,3.2-3.8,8.1-3.8,14.7V368c0,6.7,1.3,11.6,3.8,14.8
	c2.4,3.1,6,4.6,10.9,4.6c4.8,0,8.5-1.5,11-4.6s3.7-8,3.7-14.8v-41.6c0-6.7-1.2-11.6-3.7-14.7C157.8,308.7,154.1,307.1,149.2,307.1z"
	/>
<path fill="#F8F39D" stroke="#4164AF" stroke-width="0.75" stroke-miterlimit="10" d="M177.8,391.6v-88.5h4.1v88.5H177.8z"/>
<path fill="#F8F39D" stroke="#4164AF" stroke-width="0.75" stroke-miterlimit="10" d="M195.6,391.6h-4.2v-88.5h3.5l30.5,75.8v-75.8
	h4.2v88.5h-3.4l-30.6-75.8V391.6z"/>
<path fill="#F8F39D" stroke="#4164AF" stroke-width="0.75" stroke-miterlimit="10" d="M257.7,391.6c-6.3,0-11.1-2-14.3-6
	c-3.1-4-4.6-9.8-4.6-17.3v-41.9c0-7.6,1.5-13.4,4.6-17.2c3.2-4,8-6,14.3-6c6.3,0,11,2,14.2,6c3.2,3.9,4.7,9.6,4.7,17.2v2.1h-4.2
	v-2.1c0-4.3-0.5-7.7-1.4-10.2c-1-2.5-2.2-4.5-3.6-5.8c-1.4-1.3-3-2.2-4.7-2.6c-1.7-0.4-3.3-0.6-4.9-0.6c-1.6,0-3.2,0.2-5,0.6
	c-1.8,0.4-3.3,1.2-4.8,2.6c-1.4,1.3-2.7,3.2-3.6,5.8c-1,2.5-1.4,6-1.4,10.2v41.9c0,6.6,1.3,11.5,3.8,14.7c2.4,3.1,6,4.6,11,4.6
	c4.9,0,8.5-1.5,10.9-4.6c2.5-3.2,3.8-8.1,3.8-14.7v-11.6h-19.2v-4.3h23.4v15.8c0,7.6-1.6,13.4-4.7,17.3
	C268.7,389.6,264,391.6,257.7,391.6z"/>
<g>
</g>
</svg>
