<?xml version="1.0" encoding="utf-8"?>
<!-- Generator: Adobe Illustrator 18.0.0, SVG Export Plug-In . SVG Version: 6.00 Build 0)  -->
<!DOCTYPE svg PUBLIC "-//W3C//DTD SVG 1.1//EN" "http://www.w3.org/Graphics/SVG/1.1/DTD/svg11.dtd">
<svg version="1.1" id="Layer_1" xmlns="http://www.w3.org/2000/svg" xmlns:xlink="http://www.w3.org/1999/xlink" x="0px" y="0px"
	 viewBox="0 2.9 500 223.7" enable-background="new 0 2.9 500 223.7" xml:space="preserve">
<path fill="#F9F49B" d="M109.6,19.5V108h-4.2V65.8H78.6V108h-4.2V19.5h4.2v42.3h26.8V19.5H109.6z"/>
<path fill="#F9F49B" d="M139.4,108c-2.1,0-4.3-0.3-6.5-0.9s-4.3-1.8-6.1-3.5c-1.8-1.8-3.3-4.1-4.5-7.2c-1.1-3-1.7-7-1.7-11.9V42.9
	c0-7.5,1.5-13.3,4.6-17.3c3.2-4,8-6,14.2-6c6.3,0,11,2,14.2,6c3.2,3.9,4.7,9.7,4.7,17.3v41.6c0,4.9-0.6,8.9-1.7,11.9
	c-1.1,3-2.6,5.4-4.5,7.2c-1.8,1.8-3.9,2.9-6.1,3.5C143.8,107.7,141.6,108,139.4,108z M139.4,23.5c-5,0-8.6,1.5-10.9,4.6
	c-2.5,3.2-3.8,8.1-3.8,14.7v41.6c0,6.7,1.3,11.6,3.8,14.8c2.4,3.1,6,4.6,10.9,4.6c4.8,0,8.5-1.5,11-4.6s3.7-8,3.7-14.8V42.9
	c0-6.7-1.2-11.6-3.7-14.7C148,25.1,144.3,23.5,139.4,23.5z"/>
<path fill="#F9F49B" d="M244.5,19.5L225.2,108h-3.4l-16.9-76.8l-17,76.8h-3.3L165,19.5h4.2l17.1,76.8l16.9-76.8h3.3l16.9,76.8
	l16.7-76.8H244.5z"/>
<path fill="#F9F49B" d="M273.3,108h-4.2l7-30.7v-0.4l13.4-57.4h3.3L313,108h-4.2l-6-27.1h-23.4L273.3,108z M291,30.6l-10.6,46.2
	h21.4L291,30.6z"/>
<path fill="#F9F49B" d="M351.4,67.7c3.9,3.8,5.9,9,5.9,15.6v24.6h-4.2V83.3c0-5.3-1.4-9.5-4.3-12.4s-7-4.4-12.2-4.4h-2h-9.9v41.4
	h-4.1V19.3h15.9c7.1,0,12.3,1.9,15.6,5.7c3.3,3.8,4.9,9.7,4.9,17.8c0,7.9-1.6,13.7-4.9,17.6c-1.4,1.7-3.2,3-5.3,4.1
	C348.6,65.3,350.1,66.4,351.4,67.7z M336.6,62.3c5.9,0,10-1.5,12.5-4.5c2.6-3.2,3.9-8.1,3.9-15s-1.3-11.9-3.8-14.8
	c-2.5-3-6.7-4.5-12.6-4.5h-11.8v38.8h9.9H336.6z"/>
<path fill="#F9F49B" d="M370.3,23.5v38.1H398v4.1h-27.7v38.2H398v4.1h-31.8V19.5H398v4.1h-27.7V23.5z"/>
<g>
	<path fill="#F9F49B" d="M180.9,126.6l-19.3,88.5h-3.4l-16.9-76.8l-16.9,76.8H121l-19.6-88.5h4.2l17.1,76.8l16.9-76.8h3.3l16.9,76.8
		l16.7-76.8H180.9z"/>
	<path fill="#F9F49B" d="M192.3,130.7v38.1H220v4.1h-27.7v38.2H220v4.1h-31.8v-88.5H220v4.1h-27.7V130.7z"/>
	<path fill="#F9F49B" d="M271,215.2h-15.1v-88.5H271c7,0,12.2,2.1,15.6,6.3c3.2,3.9,4.9,9.7,4.9,17.6v40.7c0,7.9-1.6,13.7-4.9,17.6
		C283.2,213.1,278,215.2,271,215.2z M259.9,211.1h11c5.7,0,9.8-1.6,12.4-4.8s3.9-8.2,3.9-15v-40.7c0-6.8-1.3-11.8-3.9-15
		s-6.7-4.8-12.4-4.8h-11V211.1z"/>
	<path fill="#F9F49B" d="M320.1,215.2c-2.1,0-4.3-0.3-6.5-0.9c-2.2-0.6-4.3-1.8-6.1-3.5c-1.8-1.8-3.3-4.1-4.5-7.2
		c-1.1-3-1.7-7-1.7-11.9V150c0-7.5,1.5-13.3,4.6-17.3c3.2-4,8-6,14.2-6c6.3,0,11,2,14.2,6c3.2,3.9,4.7,9.7,4.7,17.3v41.6
		c0,4.9-0.6,8.9-1.7,11.9s-2.6,5.4-4.5,7.2c-1.8,1.8-3.9,2.9-6.1,3.5C324.5,214.9,322.3,215.2,320.1,215.2z M320.1,130.7
		c-5,0-8.6,1.5-10.9,4.6c-2.5,3.2-3.8,8.1-3.8,14.7v41.6c0,6.7,1.3,11.6,3.8,14.8c2.4,3.1,6,4.6,10.9,4.6c4.8,0,8.5-1.5,11-4.6
		s3.7-8,3.7-14.8V150c0-6.7-1.2-11.6-3.7-14.7C328.7,132.3,325,130.7,320.1,130.7z"/>
	<path fill="#F9F49B" d="M348.7,215.2v-88.5h4.1v88.5H348.7z"/>
	<path fill="#F9F49B" d="M366.5,215.2h-4.2v-88.5h3.5l30.5,75.8v-75.8h4.2v88.5h-3.4l-30.6-75.8V215.2z"/>
	<path fill="#F9F49B" d="M428.6,215.2c-6.3,0-11.1-2-14.3-6c-3.1-4-4.6-9.8-4.6-17.3V150c0-7.6,1.5-13.4,4.6-17.2c3.2-4,8-6,14.3-6
		s11,2,14.2,6c3.2,3.9,4.7,9.6,4.7,17.2v2.1h-4.2V150c0-4.3-0.5-7.7-1.4-10.2c-1-2.5-2.2-4.5-3.6-5.8s-3-2.2-4.7-2.6
		c-1.7-0.4-3.3-0.6-4.9-0.6s-3.2,0.2-5,0.6c-1.8,0.4-3.3,1.2-4.8,2.6c-1.4,1.3-2.7,3.2-3.6,5.8c-1,2.5-1.4,6-1.4,10.2v41.9
		c0,6.6,1.3,11.5,3.8,14.7c2.4,3.1,6,4.6,11,4.6c4.9,0,8.5-1.5,10.9-4.6c2.5-3.2,3.8-8.1,3.8-14.7v-11.6h-19.2V176h23.4v15.8
		c0,7.6-1.6,13.4-4.7,17.3C439.6,213.2,434.9,215.2,428.6,215.2z"/>
</g>
<path fill="#F9F49B" stroke="#1C5FE5" stroke-width="0.75" stroke-miterlimit="10" d="M102.6,14.5V103h-4.2V60.8H71.6V103h-4.2V14.5
	h4.2v42.3h26.8V14.5H102.6z"/>
<path fill="#F9F49B" stroke="#1C5FE5" stroke-width="0.75" stroke-miterlimit="10" d="M132.4,103c-2.1,0-4.3-0.3-6.5-0.9
	s-4.3-1.8-6.1-3.5c-1.8-1.8-3.3-4.1-4.5-7.2c-1.1-3-1.7-7-1.7-11.9V37.9c0-7.5,1.5-13.3,4.6-17.3c3.2-4,8-6,14.2-6
	c6.3,0,11,2,14.2,6c3.2,3.9,4.7,9.7,4.7,17.3v41.6c0,4.9-0.6,8.9-1.7,11.9c-1.1,3-2.6,5.4-4.5,7.2c-1.8,1.8-3.9,2.9-6.1,3.5
	C136.8,102.7,134.6,103,132.4,103z M132.4,18.5c-5,0-8.6,1.5-10.9,4.6c-2.5,3.2-3.8,8.1-3.8,14.7v41.6c0,6.7,1.3,11.6,3.8,14.8
	c2.4,3.1,6,4.6,10.9,4.6c4.8,0,8.5-1.5,11-4.6s3.7-8,3.7-14.8V37.9c0-6.7-1.2-11.6-3.7-14.7C141,20.1,137.3,18.5,132.4,18.5z"/>
<path fill="#F9F49B" stroke="#1C5FE5" stroke-width="0.75" stroke-miterlimit="10" d="M237.5,14.5L218.2,103h-3.4l-16.9-76.8
	l-17,76.8h-3.3L158,14.5h4.2l17.1,76.8l16.9-76.8h3.3l16.9,76.8l16.7-76.8H237.5z"/>
<path fill="#F9F49B" stroke="#1C5FE5" stroke-width="0.75" stroke-miterlimit="10" d="M266.3,103h-4.2l7-30.7v-0.4l13.4-57.4h3.3
	L306,103h-4.2l-6-27.1h-23.4L266.3,103z M284,25.6l-10.6,46.2h21.4L284,25.6z"/>
<path fill="#F9F49B" stroke="#1C5FE5" stroke-width="0.75" stroke-miterlimit="10" d="M344.4,62.7c3.9,3.8,5.9,9,5.9,15.6v24.6h-4.2
	V78.3c0-5.3-1.4-9.5-4.3-12.4s-7-4.4-12.2-4.4h-2h-9.9v41.4h-4.1V14.3h15.9c7.1,0,12.3,1.9,15.6,5.7c3.3,3.8,4.9,9.7,4.9,17.8
	c0,7.9-1.6,13.7-4.9,17.6c-1.4,1.7-3.2,3-5.3,4.1C341.6,60.3,343.1,61.4,344.4,62.7z M329.6,57.3c5.9,0,10-1.5,12.5-4.5
	c2.6-3.2,3.9-8.1,3.9-15s-1.3-11.9-3.8-14.8c-2.5-3-6.7-4.5-12.6-4.5h-11.8v38.8h9.9H329.6z"/>
<path fill="#F9F49B" stroke="#1C5FE5" stroke-width="0.75" stroke-miterlimit="10" d="M363.3,18.5v38.1H391v4.1h-27.7v38.2H391v4.1
	h-31.8V14.5H391v4.1h-27.7V18.5z"/>
<g>
	<path fill="#F9F49B" stroke="#1C5FE5" stroke-width="0.75" stroke-miterlimit="10" d="M173.9,121.6l-19.3,88.5h-3.4l-16.9-76.8
		l-16.9,76.8H114l-19.6-88.5h4.2l17.1,76.8l16.9-76.8h3.3l16.9,76.8l16.7-76.8H173.9z"/>
	<path fill="#F9F49B" stroke="#1C5FE5" stroke-width="0.75" stroke-miterlimit="10" d="M185.3,125.7v38.1H213v4.1h-27.7v38.2H213
		v4.1h-31.8v-88.5H213v4.1h-27.7V125.7z"/>
	<path fill="#F9F49B" stroke="#1C5FE5" stroke-width="0.75" stroke-miterlimit="10" d="M264,210.2h-15.1v-88.5H264
		c7,0,12.2,2.1,15.6,6.3c3.2,3.9,4.9,9.7,4.9,17.6v40.7c0,7.9-1.6,13.7-4.9,17.6C276.2,208.1,271,210.2,264,210.2z M252.9,206.1h11
		c5.7,0,9.8-1.6,12.4-4.8s3.9-8.2,3.9-15v-40.7c0-6.8-1.3-11.8-3.9-15s-6.7-4.8-12.4-4.8h-11V206.1z"/>
	<path fill="#F9F49B" stroke="#1C5FE5" stroke-width="0.75" stroke-miterlimit="10" d="M313.1,210.2c-2.1,0-4.3-0.3-6.5-0.9
		c-2.2-0.6-4.3-1.8-6.1-3.5c-1.8-1.8-3.3-4.1-4.5-7.2c-1.1-3-1.7-7-1.7-11.9V145c0-7.5,1.5-13.3,4.6-17.3c3.2-4,8-6,14.2-6
		c6.3,0,11,2,14.2,6c3.2,3.9,4.7,9.7,4.7,17.3v41.6c0,4.9-0.6,8.9-1.7,11.9s-2.6,5.4-4.5,7.2c-1.8,1.8-3.9,2.9-6.1,3.5
		C317.5,209.9,315.3,210.2,313.1,210.2z M313.1,125.7c-5,0-8.6,1.5-10.9,4.6c-2.5,3.2-3.8,8.1-3.8,14.7v41.6
		c0,6.7,1.3,11.6,3.8,14.8c2.4,3.1,6,4.6,10.9,4.6c4.8,0,8.5-1.5,11-4.6s3.7-8,3.7-14.8V145c0-6.7-1.2-11.6-3.7-14.7
		C321.7,127.3,318,125.7,313.1,125.7z"/>
	<path fill="#F9F49B" stroke="#1C5FE5" stroke-width="0.75" stroke-miterlimit="10" d="M341.7,210.2v-88.5h4.1v88.5H341.7z"/>
	<path fill="#F9F49B" stroke="#1C5FE5" stroke-width="0.75" stroke-miterlimit="10" d="M359.5,210.2h-4.2v-88.5h3.5l30.5,75.8v-75.8
		h4.2v88.5h-3.4l-30.6-75.8V210.2z"/>
	<path fill="#F9F49B" stroke="#1C5FE5" stroke-width="0.75" stroke-miterlimit="10" d="M421.6,210.2c-6.3,0-11.1-2-14.3-6
		c-3.1-4-4.6-9.8-4.6-17.3V145c0-7.6,1.5-13.4,4.6-17.2c3.2-4,8-6,14.3-6s11,2,14.2,6c3.2,3.9,4.7,9.6,4.7,17.2v2.1h-4.2V145
		c0-4.3-0.5-7.7-1.4-10.2c-1-2.5-2.2-4.5-3.6-5.8s-3-2.2-4.7-2.6c-1.7-0.4-3.3-0.6-4.9-0.6s-3.2,0.2-5,0.6c-1.8,0.4-3.3,1.2-4.8,2.6
		c-1.4,1.3-2.7,3.2-3.6,5.8c-1,2.5-1.4,6-1.4,10.2v41.9c0,6.6,1.3,11.5,3.8,14.7c2.4,3.1,6,4.6,11,4.6c4.9,0,8.5-1.5,10.9-4.6
		c2.5-3.2,3.8-8.1,3.8-14.7v-11.6h-19.2V171h23.4v15.8c0,7.6-1.6,13.4-4.7,17.3C432.6,208.2,427.9,210.2,421.6,210.2z"/>
</g>
<g>
	
		<rect x="-207.3" y="114" transform="matrix(1.003579e-03 -1 1 1.003579e-03 -320.0964 -64.0209)" fill="#F9F49B" width="30.5" height="28.3"/>
	
		<rect x="-173.3" y="114.1" transform="matrix(1.003579e-03 -1 1 1.003579e-03 -286.1465 -29.9687)" fill="#F9CE8F" width="30.5" height="28.3"/>
	
		<rect x="-139.8" y="114.1" transform="matrix(1.003579e-03 -1 1 1.003579e-03 -252.6684 3.6104)" fill="#F4B19D" width="30.5" height="28.3"/>
	
		<rect x="-106.5" y="114.1" transform="matrix(1.003579e-03 -1 1 1.003579e-03 -219.4625 36.9164)" fill="#ACCDDD" width="30.5" height="28.3"/>
	
		<rect x="-72.9" y="114.2" transform="matrix(1.003579e-03 -1 1 1.003579e-03 -185.9526 70.5273)" fill="#7A97A5" width="30.5" height="28.3"/>
	
		<rect x="-39.8" y="114.2" transform="matrix(1.003579e-03 -1 1 1.003579e-03 -152.8702 103.7115)" fill="#232B3F" width="30.5" height="28.3"/>
</g>
</svg>
